<?xml version="1.0" encoding="us-ascii" standalone="no"?><svg xmlns="http://www.w3.org/2000/svg" xmlns:xlink="http://www.w3.org/1999/xlink" contentStyleType="text/css" height="561px" preserveAspectRatio="none" style="width:829px;height:561px;background:#FFFFFF;" version="1.1" viewBox="0 0 829 561" width="829px" zoomAndPan="magnify"><defs/><g><!--class Department--><g id="elem_Department"><rect codeLine="2" fill="#F1F1F1" height="118.4375" id="Department" rx="2.5" ry="2.5" style="stroke:#181818;stroke-width:0.5;" width="153" x="297.41" y="311"/><ellipse cx="333.56" cy="327" fill="#EB937F" rx="11" ry="11" style="stroke:#181818;stroke-width:1.0;"/><path d="M332.4194,327.7969 L332.4194,330.2969 L336.7475,330.2969 L336.7475,329.375 Q336.7475,328.7656 336.9819,328.5 Q337.2319,328.2344 337.6069,328.2344 Q337.9819,328.2344 338.2162,328.5 Q338.4506,328.7656 338.4506,329.375 L338.4506,332 L330.4506,332 Q329.8256,332 329.56,331.7656 Q329.31,331.5313 329.31,331.1406 Q329.31,330.7656 329.5756,330.5313 Q329.8412,330.2969 330.4506,330.2969 L330.7162,330.2969 L330.7162,323.6406 L330.4506,323.6406 Q329.8256,323.6406 329.56,323.4063 Q329.31,323.1719 329.31,322.7813 Q329.31,322.4063 329.56,322.1719 Q329.8256,321.9375 330.4506,321.9375 L338.0756,321.9375 L338.0756,324.5313 Q338.0756,325.1406 337.8412,325.4063 Q337.6225,325.6563 337.2319,325.6563 Q336.8569,325.6563 336.6225,325.4063 Q336.3881,325.1406 336.3881,324.5313 L336.3881,323.6406 L332.4194,323.6406 L332.4194,326.0938 L333.9037,326.0938 Q333.9037,325.4375 334.0287,325.25 Q334.2944,324.8438 334.7631,324.8438 Q335.1381,324.8438 335.3725,325.1094 Q335.6069,325.3594 335.6069,325.9688 L335.6069,327.9375 Q335.6069,328.4844 335.4819,328.6719 Q335.2162,329.0625 334.7631,329.0625 Q334.2944,329.0625 334.0287,328.6563 Q333.9037,328.4688 333.9037,327.7969 L332.4194,327.7969 Z " fill="#000000"/><text fill="#000000" font-family="sans-serif" font-size="14" lengthAdjust="spacing" textLength="74" x="352.26" y="332.7285">Department</text><line style="stroke:#181818;stroke-width:0.5;" x1="298.41" x2="449.41" y1="343" y2="343"/><text fill="#000000" font-family="sans-serif" font-size="14" lengthAdjust="spacing" textLength="44" x="303.41" y="361.5332">SALES</text><text fill="#000000" font-family="sans-serif" font-size="14" lengthAdjust="spacing" textLength="141" x="303.41" y="379.1426">HUMAN_RESOURCES</text><text fill="#000000" font-family="sans-serif" font-size="14" lengthAdjust="spacing" textLength="96" x="303.41" y="396.752">MANAGEMENT</text><text fill="#000000" font-family="sans-serif" font-size="14" lengthAdjust="spacing" textLength="89" x="303.41" y="414.3613">OPERATIONS</text><line style="stroke:#181818;stroke-width:0.5;" x1="298.41" x2="449.41" y1="421.4375" y2="421.4375"/></g><!--class Entity--><g id="elem_Entity"><rect codeLine="9" fill="#F1F1F1" height="65.6094" id="Entity" rx="2.5" ry="2.5" style="stroke:#181818;stroke-width:0.5;" width="82" x="370.91" y="489"/><ellipse cx="392.66" cy="505" fill="#ADD1B2" rx="11" ry="11" style="stroke:#181818;stroke-width:1.0;"/><path d="M395.4256,500.875 Q395.5819,500.6563 395.7694,500.5469 Q395.9569,500.4375 396.1756,500.4375 Q396.5506,500.4375 396.785,500.7031 Q397.0194,500.9531 397.0194,501.5625 L397.0194,503.0156 Q397.0194,503.625 396.785,503.8906 Q396.5506,504.1563 396.1756,504.1563 Q395.8319,504.1563 395.6288,503.9531 Q395.4256,503.7656 395.3163,503.25 Q395.2694,502.8906 395.0819,502.7031 Q394.7538,502.3281 394.1444,502.1094 Q393.535,501.8906 392.91,501.8906 Q392.1444,501.8906 391.5038,502.2188 Q390.8788,502.5469 390.3788,503.2969 Q389.8944,504.0469 389.8944,505.0781 L389.8944,506.1719 Q389.8944,507.4063 390.785,508.2344 Q391.6756,509.0469 393.2694,509.0469 Q394.2069,509.0469 394.8631,508.7969 Q395.2538,508.6406 395.6756,508.2031 Q395.9413,507.9375 396.0819,507.8594 Q396.2381,507.7813 396.4413,507.7813 Q396.7694,507.7813 397.0194,508.0469 Q397.285,508.2969 397.285,508.6406 Q397.285,508.9844 396.9413,509.3906 Q396.4413,509.9688 395.6444,510.2969 Q394.5663,510.75 393.2694,510.75 Q391.7538,510.75 390.5506,510.125 Q389.5663,509.625 388.8788,508.5625 Q388.1913,507.4844 388.1913,506.2031 L388.1913,505.0469 Q388.1913,503.7188 388.8006,502.5781 Q389.4256,501.4219 390.5194,500.8125 Q391.6131,500.1875 392.8475,500.1875 Q393.5819,500.1875 394.2225,500.3594 Q394.8788,500.5156 395.4256,500.875 Z " fill="#000000"/><text fill="#000000" font-family="sans-serif" font-size="14" lengthAdjust="spacing" textLength="35" x="408.16" y="510.7285">Entity</text><line style="stroke:#181818;stroke-width:0.5;" x1="371.91" x2="451.91" y1="521" y2="521"/><ellipse cx="381.91" cy="535.3047" fill="none" rx="3" ry="3" style="stroke:#038048;stroke-width:1.0;"/><text fill="#000000" font-family="sans-serif" font-size="14" lengthAdjust="spacing" textLength="56" x="390.91" y="539.5332">id: String</text><line style="stroke:#181818;stroke-width:0.5;" x1="371.91" x2="451.91" y1="546.6094" y2="546.6094"/></g><!--class Company--><g id="elem_Company"><rect codeLine="13" fill="#F1F1F1" height="100.8281" id="Company" rx="2.5" ry="2.5" style="stroke:#181818;stroke-width:0.5;" width="122" x="325.91" y="7"/><ellipse cx="354.41" cy="23" fill="#ADD1B2" rx="11" ry="11" style="stroke:#181818;stroke-width:1.0;"/><path d="M357.1756,18.875 Q357.3319,18.6563 357.5194,18.5469 Q357.7069,18.4375 357.9256,18.4375 Q358.3006,18.4375 358.535,18.7031 Q358.7694,18.9531 358.7694,19.5625 L358.7694,21.0156 Q358.7694,21.625 358.535,21.8906 Q358.3006,22.1563 357.9256,22.1563 Q357.5819,22.1563 357.3787,21.9531 Q357.1756,21.7656 357.0662,21.25 Q357.0194,20.8906 356.8319,20.7031 Q356.5037,20.3281 355.8944,20.1094 Q355.285,19.8906 354.66,19.8906 Q353.8944,19.8906 353.2537,20.2188 Q352.6287,20.5469 352.1287,21.2969 Q351.6444,22.0469 351.6444,23.0781 L351.6444,24.1719 Q351.6444,25.4063 352.535,26.2344 Q353.4256,27.0469 355.0194,27.0469 Q355.9569,27.0469 356.6131,26.7969 Q357.0037,26.6406 357.4256,26.2031 Q357.6912,25.9375 357.8319,25.8594 Q357.9881,25.7813 358.1912,25.7813 Q358.5194,25.7813 358.7694,26.0469 Q359.035,26.2969 359.035,26.6406 Q359.035,26.9844 358.6912,27.3906 Q358.1912,27.9688 357.3944,28.2969 Q356.3162,28.75 355.0194,28.75 Q353.5037,28.75 352.3006,28.125 Q351.3162,27.625 350.6287,26.5625 Q349.9412,25.4844 349.9412,24.2031 L349.9412,23.0469 Q349.9412,21.7188 350.5506,20.5781 Q351.1756,19.4219 352.2694,18.8125 Q353.3631,18.1875 354.5975,18.1875 Q355.3319,18.1875 355.9725,18.3594 Q356.6287,18.5156 357.1756,18.875 Z " fill="#000000"/><text fill="#000000" font-family="sans-serif" font-size="14" lengthAdjust="spacing" textLength="60" x="371.41" y="28.7285">Company</text><line style="stroke:#181818;stroke-width:0.5;" x1="326.91" x2="446.91" y1="39" y2="39"/><ellipse cx="336.91" cy="53.3047" fill="none" rx="3" ry="3" style="stroke:#038048;stroke-width:1.0;"/><text fill="#000000" font-family="sans-serif" font-size="14" lengthAdjust="spacing" textLength="60" x="345.91" y="57.5332">nit: String</text><ellipse cx="336.91" cy="70.9141" fill="none" rx="3" ry="3" style="stroke:#038048;stroke-width:1.0;"/><text fill="#000000" font-family="sans-serif" font-size="14" lengthAdjust="spacing" textLength="80" x="345.91" y="75.1426">name: String</text><ellipse cx="336.91" cy="88.5234" fill="none" rx="3" ry="3" style="stroke:#038048;stroke-width:1.0;"/><text fill="#000000" font-family="sans-serif" font-size="14" lengthAdjust="spacing" textLength="96" x="345.91" y="92.752">address: String</text><line style="stroke:#181818;stroke-width:0.5;" x1="326.91" x2="446.91" y1="99.8281" y2="99.8281"/></g><!--class Person--><g id="elem_Person"><rect codeLine="19" fill="#F1F1F1" height="100.8281" id="Person" rx="2.5" ry="2.5" style="stroke:#181818;stroke-width:0.5;" width="125" x="697.41" y="319.5"/><ellipse cx="734.01" cy="335.5" fill="#ADD1B2" rx="11" ry="11" style="stroke:#181818;stroke-width:1.0;"/><path d="M736.7756,331.375 Q736.9319,331.1563 737.1194,331.0469 Q737.3069,330.9375 737.5256,330.9375 Q737.9006,330.9375 738.135,331.2031 Q738.3694,331.4531 738.3694,332.0625 L738.3694,333.5156 Q738.3694,334.125 738.135,334.3906 Q737.9006,334.6563 737.5256,334.6563 Q737.1819,334.6563 736.9788,334.4531 Q736.7756,334.2656 736.6663,333.75 Q736.6194,333.3906 736.4319,333.2031 Q736.1038,332.8281 735.4944,332.6094 Q734.885,332.3906 734.26,332.3906 Q733.4944,332.3906 732.8538,332.7188 Q732.2288,333.0469 731.7288,333.7969 Q731.2444,334.5469 731.2444,335.5781 L731.2444,336.6719 Q731.2444,337.9063 732.135,338.7344 Q733.0256,339.5469 734.6194,339.5469 Q735.5569,339.5469 736.2131,339.2969 Q736.6038,339.1406 737.0256,338.7031 Q737.2913,338.4375 737.4319,338.3594 Q737.5881,338.2813 737.7913,338.2813 Q738.1194,338.2813 738.3694,338.5469 Q738.635,338.7969 738.635,339.1406 Q738.635,339.4844 738.2913,339.8906 Q737.7913,340.4688 736.9944,340.7969 Q735.9163,341.25 734.6194,341.25 Q733.1038,341.25 731.9006,340.625 Q730.9163,340.125 730.2288,339.0625 Q729.5413,337.9844 729.5413,336.7031 L729.5413,335.5469 Q729.5413,334.2188 730.1506,333.0781 Q730.7756,331.9219 731.8694,331.3125 Q732.9631,330.6875 734.1975,330.6875 Q734.9319,330.6875 735.5725,330.8594 Q736.2288,331.0156 736.7756,331.375 Z " fill="#000000"/><text fill="#000000" font-family="sans-serif" font-size="14" lengthAdjust="spacing" textLength="45" x="752.81" y="341.2285">Person</text><line style="stroke:#181818;stroke-width:0.5;" x1="698.41" x2="821.41" y1="351.5" y2="351.5"/><ellipse cx="708.41" cy="365.8047" fill="none" rx="3" ry="3" style="stroke:#038048;stroke-width:1.0;"/><text fill="#000000" font-family="sans-serif" font-size="14" lengthAdjust="spacing" textLength="99" x="717.41" y="370.0332">fullName: String</text><ellipse cx="708.41" cy="383.4141" fill="none" rx="3" ry="3" style="stroke:#038048;stroke-width:1.0;"/><text fill="#000000" font-family="sans-serif" font-size="14" lengthAdjust="spacing" textLength="90" x="717.41" y="387.6426">gender: String</text><ellipse cx="708.41" cy="401.0234" fill="none" rx="3" ry="3" style="stroke:#038048;stroke-width:1.0;"/><text fill="#000000" font-family="sans-serif" font-size="14" lengthAdjust="spacing" textLength="78" x="717.41" y="405.252">email: String</text><line style="stroke:#181818;stroke-width:0.5;" x1="698.41" x2="821.41" y1="412.3281" y2="412.3281"/></g><!--class EmployeePosition--><g id="elem_EmployeePosition"><rect codeLine="25" fill="#F1F1F1" height="83.2188" id="EmployeePosition" rx="2.5" ry="2.5" style="stroke:#181818;stroke-width:0.5;" width="144" x="117.91" y="328.5"/><ellipse cx="132.91" cy="344.5" fill="#ADD1B2" rx="11" ry="11" style="stroke:#181818;stroke-width:1.0;"/><path d="M135.6756,340.375 Q135.8319,340.1563 136.0194,340.0469 Q136.2069,339.9375 136.4256,339.9375 Q136.8006,339.9375 137.035,340.2031 Q137.2694,340.4531 137.2694,341.0625 L137.2694,342.5156 Q137.2694,343.125 137.035,343.3906 Q136.8006,343.6563 136.4256,343.6563 Q136.0819,343.6563 135.8788,343.4531 Q135.6756,343.2656 135.5663,342.75 Q135.5194,342.3906 135.3319,342.2031 Q135.0038,341.8281 134.3944,341.6094 Q133.785,341.3906 133.16,341.3906 Q132.3944,341.3906 131.7538,341.7188 Q131.1288,342.0469 130.6288,342.7969 Q130.1444,343.5469 130.1444,344.5781 L130.1444,345.6719 Q130.1444,346.9063 131.035,347.7344 Q131.9256,348.5469 133.5194,348.5469 Q134.4569,348.5469 135.1131,348.2969 Q135.5038,348.1406 135.9256,347.7031 Q136.1913,347.4375 136.3319,347.3594 Q136.4881,347.2813 136.6913,347.2813 Q137.0194,347.2813 137.2694,347.5469 Q137.535,347.7969 137.535,348.1406 Q137.535,348.4844 137.1913,348.8906 Q136.6913,349.4688 135.8944,349.7969 Q134.8163,350.25 133.5194,350.25 Q132.0038,350.25 130.8006,349.625 Q129.8163,349.125 129.1288,348.0625 Q128.4413,346.9844 128.4413,345.7031 L128.4413,344.5469 Q128.4413,343.2188 129.0506,342.0781 Q129.6756,340.9219 130.7694,340.3125 Q131.8631,339.6875 133.0975,339.6875 Q133.8319,339.6875 134.4725,339.8594 Q135.1288,340.0156 135.6756,340.375 Z " fill="#000000"/><text fill="#000000" font-family="sans-serif" font-size="14" lengthAdjust="spacing" textLength="112" x="146.91" y="350.2285">EmployeePosition</text><line style="stroke:#181818;stroke-width:0.5;" x1="118.91" x2="260.91" y1="360.5" y2="360.5"/><ellipse cx="128.91" cy="374.8047" fill="none" rx="3" ry="3" style="stroke:#038048;stroke-width:1.0;"/><text fill="#000000" font-family="sans-serif" font-size="14" lengthAdjust="spacing" textLength="80" x="137.91" y="379.0332">name: String</text><ellipse cx="128.91" cy="392.4141" fill="none" rx="3" ry="3" style="stroke:#038048;stroke-width:1.0;"/><text fill="#000000" font-family="sans-serif" font-size="14" lengthAdjust="spacing" textLength="116" x="137.91" y="396.6426">hierarchyLevel: Int</text><line style="stroke:#181818;stroke-width:0.5;" x1="118.91" x2="260.91" y1="403.7188" y2="403.7188"/></g><!--class Employee--><g id="elem_Employee"><rect codeLine="30" fill="#F1F1F1" height="83.2188" id="Employee" rx="2.5" ry="2.5" style="stroke:#181818;stroke-width:0.5;" width="120" x="326.91" y="168"/><ellipse cx="353.61" cy="184" fill="#ADD1B2" rx="11" ry="11" style="stroke:#181818;stroke-width:1.0;"/><path d="M356.3756,179.875 Q356.5319,179.6563 356.7194,179.5469 Q356.9069,179.4375 357.1256,179.4375 Q357.5006,179.4375 357.735,179.7031 Q357.9694,179.9531 357.9694,180.5625 L357.9694,182.0156 Q357.9694,182.625 357.735,182.8906 Q357.5006,183.1563 357.1256,183.1563 Q356.7819,183.1563 356.5787,182.9531 Q356.3756,182.7656 356.2662,182.25 Q356.2194,181.8906 356.0319,181.7031 Q355.7037,181.3281 355.0944,181.1094 Q354.485,180.8906 353.86,180.8906 Q353.0944,180.8906 352.4537,181.2188 Q351.8287,181.5469 351.3287,182.2969 Q350.8444,183.0469 350.8444,184.0781 L350.8444,185.1719 Q350.8444,186.4063 351.735,187.2344 Q352.6256,188.0469 354.2194,188.0469 Q355.1569,188.0469 355.8131,187.7969 Q356.2037,187.6406 356.6256,187.2031 Q356.8912,186.9375 357.0319,186.8594 Q357.1881,186.7813 357.3912,186.7813 Q357.7194,186.7813 357.9694,187.0469 Q358.235,187.2969 358.235,187.6406 Q358.235,187.9844 357.8912,188.3906 Q357.3912,188.9688 356.5944,189.2969 Q355.5162,189.75 354.2194,189.75 Q352.7037,189.75 351.5006,189.125 Q350.5162,188.625 349.8287,187.5625 Q349.1412,186.4844 349.1412,185.2031 L349.1412,184.0469 Q349.1412,182.7188 349.7506,181.5781 Q350.3756,180.4219 351.4694,179.8125 Q352.5631,179.1875 353.7975,179.1875 Q354.5319,179.1875 355.1725,179.3594 Q355.8287,179.5156 356.3756,179.875 Z " fill="#000000"/><text fill="#000000" font-family="sans-serif" font-size="14" lengthAdjust="spacing" textLength="62" x="370.21" y="189.7285">Employee</text><line style="stroke:#181818;stroke-width:0.5;" x1="327.91" x2="445.91" y1="200" y2="200"/><ellipse cx="337.91" cy="214.3047" fill="none" rx="3" ry="3" style="stroke:#038048;stroke-width:1.0;"/><text fill="#000000" font-family="sans-serif" font-size="14" lengthAdjust="spacing" textLength="91" x="346.91" y="218.5332">salary: Double</text><ellipse cx="337.91" cy="231.9141" fill="none" rx="3" ry="3" style="stroke:#038048;stroke-width:1.0;"/><text fill="#000000" font-family="sans-serif" font-size="14" lengthAdjust="spacing" textLength="94" x="346.91" y="236.1426">joiningYear: Int</text><line style="stroke:#181818;stroke-width:0.5;" x1="327.91" x2="445.91" y1="243.2188" y2="243.2188"/></g><!--class Client--><g id="elem_Client"><rect codeLine="35" fill="#F1F1F1" height="83.2188" id="Client" rx="2.5" ry="2.5" style="stroke:#181818;stroke-width:0.5;" width="122" x="512.91" y="168"/><ellipse cx="552.21" cy="184" fill="#ADD1B2" rx="11" ry="11" style="stroke:#181818;stroke-width:1.0;"/><path d="M554.9756,179.875 Q555.1319,179.6563 555.3194,179.5469 Q555.5069,179.4375 555.7256,179.4375 Q556.1006,179.4375 556.335,179.7031 Q556.5694,179.9531 556.5694,180.5625 L556.5694,182.0156 Q556.5694,182.625 556.335,182.8906 Q556.1006,183.1563 555.7256,183.1563 Q555.3819,183.1563 555.1788,182.9531 Q554.9756,182.7656 554.8663,182.25 Q554.8194,181.8906 554.6319,181.7031 Q554.3038,181.3281 553.6944,181.1094 Q553.085,180.8906 552.46,180.8906 Q551.6944,180.8906 551.0538,181.2188 Q550.4288,181.5469 549.9288,182.2969 Q549.4444,183.0469 549.4444,184.0781 L549.4444,185.1719 Q549.4444,186.4063 550.335,187.2344 Q551.2256,188.0469 552.8194,188.0469 Q553.7569,188.0469 554.4131,187.7969 Q554.8038,187.6406 555.2256,187.2031 Q555.4913,186.9375 555.6319,186.8594 Q555.7881,186.7813 555.9913,186.7813 Q556.3194,186.7813 556.5694,187.0469 Q556.835,187.2969 556.835,187.6406 Q556.835,187.9844 556.4913,188.3906 Q555.9913,188.9688 555.1944,189.2969 Q554.1163,189.75 552.8194,189.75 Q551.3038,189.75 550.1006,189.125 Q549.1163,188.625 548.4288,187.5625 Q547.7413,186.4844 547.7413,185.2031 L547.7413,184.0469 Q547.7413,182.7188 548.3506,181.5781 Q548.9756,180.4219 550.0694,179.8125 Q551.1631,179.1875 552.3975,179.1875 Q553.1319,179.1875 553.7725,179.3594 Q554.4288,179.5156 554.9756,179.875 Z " fill="#000000"/><text fill="#000000" font-family="sans-serif" font-size="14" lengthAdjust="spacing" textLength="36" x="571.61" y="189.7285">Client</text><line style="stroke:#181818;stroke-width:0.5;" x1="513.91" x2="633.91" y1="200" y2="200"/><ellipse cx="523.91" cy="214.3047" fill="none" rx="3" ry="3" style="stroke:#038048;stroke-width:1.0;"/><text fill="#000000" font-family="sans-serif" font-size="14" lengthAdjust="spacing" textLength="96" x="532.91" y="218.5332">address: String</text><ellipse cx="523.91" cy="231.9141" fill="none" rx="3" ry="3" style="stroke:#038048;stroke-width:1.0;"/><text fill="#000000" font-family="sans-serif" font-size="14" lengthAdjust="spacing" textLength="85" x="532.91" y="236.1426">phone: String</text><line style="stroke:#181818;stroke-width:0.5;" x1="513.91" x2="633.91" y1="243.2188" y2="243.2188"/></g><!--class CrudReposiory--><g id="elem_CrudReposiory"><rect codeLine="40" fill="#F1F1F1" height="118.4375" id="CrudReposiory" rx="2.5" ry="2.5" style="stroke:#181818;stroke-width:0.5;" width="177" x="485.41" y="311"/><ellipse cx="500.41" cy="327" fill="#B4A7E5" rx="11" ry="11" style="stroke:#181818;stroke-width:1.0;"/><path d="M501.3631,323.6406 L501.3631,330.2969 L503.0819,330.2969 Q503.6913,330.2969 503.9569,330.5313 Q504.2225,330.7656 504.2225,331.1563 Q504.2225,331.5313 503.9569,331.7656 Q503.6913,332 503.0819,332 L497.9413,332 Q497.3319,332 497.0663,331.7656 Q496.8006,331.5313 496.8006,331.1406 Q496.8006,330.7656 497.0663,330.5313 Q497.3319,330.2969 497.9413,330.2969 L499.66,330.2969 L499.66,323.6406 L497.9413,323.6406 Q497.3319,323.6406 497.0663,323.4063 Q496.8006,323.1719 496.8006,322.7813 Q496.8006,322.4063 497.0663,322.1719 Q497.3319,321.9375 497.9413,321.9375 L503.0819,321.9375 Q503.6913,321.9375 503.9569,322.1719 Q504.2225,322.4063 504.2225,322.7813 Q504.2225,323.1719 503.9569,323.4063 Q503.6913,323.6406 503.0819,323.6406 L501.3631,323.6406 Z " fill="#000000"/><text fill="#000000" font-family="sans-serif" font-size="14" font-style="italic" lengthAdjust="spacing" textLength="95" x="514.41" y="332.7285">CrudReposiory</text><rect fill="#FFFFFF" height="17.0938" style="stroke:#181818;stroke-width:1.0;stroke-dasharray:2.0,2.0;" width="48" x="617.41" y="308"/><text fill="#000000" font-family="sans-serif" font-size="12" font-style="italic" lengthAdjust="spacing" textLength="46" x="618.41" y="321.457">T : Entity</text><line style="stroke:#181818;stroke-width:0.5;" x1="486.41" x2="661.41" y1="343" y2="343"/><line style="stroke:#181818;stroke-width:0.5;" x1="486.41" x2="661.41" y1="351" y2="351"/><text fill="#000000" font-family="sans-serif" font-size="14" lengthAdjust="spacing" textLength="79" x="491.41" y="369.5332">readAll(): T[]</text><text fill="#000000" font-family="sans-serif" font-size="14" lengthAdjust="spacing" textLength="112" x="491.41" y="387.1426">read(id: String): T</text><text fill="#000000" font-family="sans-serif" font-size="14" lengthAdjust="spacing" textLength="91" x="491.41" y="404.752">save(entity: T)</text><text fill="#000000" font-family="sans-serif" font-size="14" lengthAdjust="spacing" textLength="105" x="491.41" y="422.3613">delete(id: String)</text></g><!--link Company to Entity--><g id="link_Company_Entity"><path codeLine="47" d="M325.81,92.17 C216.2,156.9 6,303.4 99.91,429 C132.58,472.7 275.9398,500.0455 352.9698,512.1955 " fill="none" id="Company-to-Entity" style="stroke:#181818;stroke-width:1.0;"/><polygon fill="none" points="370.75,515,353.9046,506.2688,352.035,518.1222,370.75,515" style="stroke:#181818;stroke-width:1.0;"/></g><!--link Person to Entity--><g id="link_Person_Entity"><path codeLine="48" d="M697.26,419.01 C691.52,422.61 685.69,426 679.91,429 C603.73,468.56 524.2988,492.4028 470.3588,506.4528 " fill="none" id="Person-to-Entity" style="stroke:#181818;stroke-width:1.0;"/><polygon fill="none" points="452.94,510.99,471.8712,512.2591,468.8464,500.6466,452.94,510.99" style="stroke:#181818;stroke-width:1.0;"/></g><!--link Employee to Person--><g id="link_Employee_Person"><path codeLine="49" d="M447,233.58 C462.55,239.41 479.31,245.55 494.91,251 C576.51,279.52 602.86,271.82 679.91,311 C685.72,313.96 676.2851,307.8036 682.0251,311.3736 " fill="none" id="Employee-to-Person" style="stroke:#181818;stroke-width:1.0;"/><polygon fill="none" points="697.31,320.88,685.1939,306.2786,678.8563,316.4685,697.31,320.88" style="stroke:#181818;stroke-width:1.0;"/></g><!--link Client to Person--><g id="link_Client_Person"><path codeLine="50" d="M621.81,251.32 C646.13,272.05 662.188,285.7371 687.848,307.5971 " fill="none" id="Client-to-Person" style="stroke:#181818;stroke-width:1.0;"/><polygon fill="none" points="701.55,319.27,691.739,303.0298,683.9571,312.1645,701.55,319.27" style="stroke:#181818;stroke-width:1.0;"/></g><!--reverse link Company to Employee--><g id="link_Company_Employee"><path codeLine="52" d="M386.91,120.03 C386.91,139.32 386.91,149.15 386.91,167.53 " fill="none" id="Company-backto-Employee" style="stroke:#181818;stroke-width:1.0;"/><polygon fill="#181818" points="386.91,108.03,382.91,114.03,386.91,120.03,390.91,114.03,386.91,108.03" style="stroke:#181818;stroke-width:1.0;"/><text fill="#000000" font-family="sans-serif" font-size="13" lengthAdjust="spacing" textLength="20" x="365.3163" y="157.0717">1..*</text></g><!--reverse link Company to Client--><g id="link_Company_Client"><path codeLine="53" d="M457.4999,115.1295 C481.7799,134.6095 500.02,149.23 523.16,167.8 " fill="none" id="Company-backto-Client" style="stroke:#181818;stroke-width:1.0;"/><polygon fill="none" points="448.14,107.62,450.3168,114.4947,457.4999,115.1295,455.3231,108.2548,448.14,107.62" style="stroke:#181818;stroke-width:1.0;"/><text fill="#000000" font-family="sans-serif" font-size="13" lengthAdjust="spacing" textLength="20" x="493.0983" y="157.0746">0..*</text></g><!--link Employee to Department--><g id="link_Employee_Department"><path codeLine="55" d="M383.56,251.32 C382.07,269.48 380.782,285.2102 379.152,305.0202 " fill="none" id="Employee-to-Department" style="stroke:#181818;stroke-width:1.0;"/><polygon fill="#181818" points="378.66,311,383.3846,302.3583,379.07,306.0168,375.4115,301.7023,378.66,311" style="stroke:#181818;stroke-width:1.0;"/></g><!--reverse link Employee to Employee--><g id="link_Employee_Employee"><path codeLine="56" d="M459.2087,181.1898 C478.5587,181.4798 481.91,190.8 481.91,209.5 C481.91,228.2 466.56,237.7 447.21,237.99 " fill="none" id="Employee-backto-Employee" style="stroke:#181818;stroke-width:1.0;"/><polygon fill="none" points="447.21,181.01,453.1494,185.0995,459.2087,181.1898,453.2693,177.1004,447.21,181.01" style="stroke:#181818;stroke-width:1.0;"/><text fill="#000000" font-family="sans-serif" font-size="13" lengthAdjust="spacing" textLength="20" x="454.8991" y="237.7335">0..*</text></g><!--reverse link Employee to EmployeePosition--><g id="link_Employee_EmployeePosition"><path codeLine="57" d="M327.0806,258.6326 C297.5506,282.3926 269.76,304.76 240.25,328.49 " fill="none" id="Employee-backto-EmployeePosition" style="stroke:#181818;stroke-width:1.0;"/><polygon fill="#181818" points="336.43,251.11,329.2478,251.7548,327.0806,258.6326,334.2628,257.9877,336.43,251.11" style="stroke:#181818;stroke-width:1.0;"/><text fill="#000000" font-family="sans-serif" font-size="13" lengthAdjust="spacing" textLength="7" x="241.0079" y="317.796">1</text></g><!--link Client to CrudReposiory--><g id="link_Client_CrudReposiory"><path codeLine="59" d="M573.91,251.32 C573.91,269.48 573.91,273.19 573.91,293 " fill="none" id="Client-to-CrudReposiory" style="stroke:#181818;stroke-width:1.0;stroke-dasharray:7.0,7.0;"/><polygon fill="none" points="573.91,311,579.91,293,567.91,293,573.91,311" style="stroke:#181818;stroke-width:1.0;"/></g><!--link Employee to CrudReposiory--><g id="link_Employee_CrudReposiory"><path codeLine="60" d="M435.06,251.32 C456.49,269.48 468.3818,279.548 491.7418,299.358 " fill="none" id="Employee-to-CrudReposiory" style="stroke:#181818;stroke-width:1.0;stroke-dasharray:7.0,7.0;"/><polygon fill="none" points="505.47,311,495.6224,294.782,487.8611,303.9341,505.47,311" style="stroke:#181818;stroke-width:1.0;"/></g><!--SRC=[RP9HQuCm483Vyoj2dzeEPNkLKH0hMw6rHUt366DazTfcn4IIM91j_tqsQhHpFiNlxhvSSW5UvdW91P4w1wxn5yBrb_ZhC36hv_t6ZzxZCDdkuw1bDV6VmaqOfUPtkmjZFrrjemJz87HWH2aSSarrrThkQERXH4lAJtr68FA2S9l2gROv3I0vt1AIPHAK6gjs89NWdUbOCXQDYa_0Cv2t3792sLWNvWKJ5S1EAAffBnvtTAOWYJoSgpLSe3Qjk1vhkd95696LXvUY_63Gi4z1UMrx0IB_L0UCzkCO7Tt0uYmu3DkdN8CyaWFWG9PP34Lz024h_9XYhvt8eZLA89dFs7JcuVJrpQ9fFwbhn715BZ05KrsZcM4PCD0mpBxktutKSRuNxNwedSqGsOini4b0xNc7oFhcZeCd3wuxdzXBjJ5nZTsRMAD0G_zYyBHxFgYnFXjiDfkCNW7gMdJTkiMR2-wB_udz0W00]--></g></svg>